<svg width="64" height="65" fill="none" xmlns="http://www.w3.org/2000/svg"><path d="M24 3.193v5.334h16V3.193h5.333v5.334H56a2.667 2.667 0 0 1 2.667 2.666V53.86A2.666 2.666 0 0 1 56 56.527H8a2.667 2.667 0 0 1-2.667-2.667V11.193A2.667 2.667 0 0 1 8 8.527h10.667V3.193H24ZM53.333 29.86H10.667v21.333h42.666V29.86Zm-32 5.333v5.334H16v-5.334h5.333Zm13.334 0v5.334h-5.334v-5.334h5.334Zm13.333 0v5.334h-5.333v-5.334H48ZM18.667 13.86h-8v10.667h42.666V13.86h-8v5.333H40V13.86H24v5.333h-5.333V13.86Z" fill="url(#calendar-2-line__a)"/><defs><linearGradient id="calendar-2-line__a" x1="32" y1="3.193" x2="32" y2="56.527" gradientUnits="userSpaceOnUse"><stop stop-color="#7ED990"/><stop offset="1" stop-color="#31CC50"/></linearGradient></defs></svg>