<svg width="146" height="120" fill="none" xmlns="http://www.w3.org/2000/svg"><g filter="url(#Frame 2__a)"><g clip-path="url(#Frame 2__b)"><rect x="12" y="2" width="121.263" height="96" rx="5.684" fill="#F1F5F9"/><g clip-path="url(#Frame 2__c)"><path fill="#020037" d="M12 2h121.263v60.632H12z"/><path fill="#000" fill-opacity=".5" d="M12 2h121.263v68.21H12z"/><path d="M82.816 24.247 73.42 21.36a2.691 2.691 0 0 0-1.576 0l-9.396 2.887a.793.793 0 0 0 0 1.535l1.637.504 1.17.36 1.516.465 5.072 1.559c.305.093.89.21 1.576 0l2.529-.777 2.528-.777 4.34-1.333a.793.793 0 0 0 0-1.536Z" fill="url(#Frame 2__d)"/><path d="M73.42 28.67a2.707 2.707 0 0 1-1.577 0l-5.073-1.56-.128 1.09 4.885 1.5a3.77 3.77 0 0 0 2.209 0l4.885-1.501-.145-1.083-2.528.777-2.529.777Z" fill="#fff" fill-opacity=".85"/><path d="M73.736 29.7a3.77 3.77 0 0 1-2.21 0l-4.884-1.5-.478 3.821c0 1.19 2.896 2.156 6.468 2.156 3.571 0 6.467-.965 6.467-2.156L78.62 28.2l-4.884 1.5Z" fill="#fff" fill-opacity=".75"/><path d="M48.571 41.39v-4.528h2.956v.667h-2.128v1.241h1.934v.647h-1.934v1.306h2.128v.667h-2.956Zm4.587 0-1.178-3.208h.867l.815 2.425.815-2.425h.867L54.16 41.39h-1.002Zm4.108.077a1.75 1.75 0 0 1-.86-.207 1.498 1.498 0 0 1-.588-.582 1.721 1.721 0 0 1-.214-.866c0-.332.07-.628.207-.886.142-.26.337-.46.582-.602.25-.146.544-.22.88-.22.315 0 .593.07.834.207.242.138.43.328.563.57a1.548 1.548 0 0 1 .2.943c0 .052-.002.106-.006.162h-2.438c.017.25.103.447.258.589.16.142.352.213.576.213a.753.753 0 0 0 .42-.11.715.715 0 0 0 .259-.297h.84a1.53 1.53 0 0 1-.303.556c-.138.164-.31.293-.518.388a1.615 1.615 0 0 1-.692.142Zm.007-2.69a.87.87 0 0 0-.537.175c-.155.112-.254.284-.297.517h1.597a.698.698 0 0 0-.233-.505.774.774 0 0 0-.53-.187Zm2.3 2.613v-3.208h.73l.066.543c.099-.19.241-.34.426-.453.19-.112.412-.168.666-.168.397 0 .705.125.925.375.22.25.33.617.33 1.1v1.81h-.828v-1.733c0-.276-.056-.487-.168-.633-.112-.147-.286-.22-.524-.22a.748.748 0 0 0-.575.245c-.147.164-.22.393-.22.686v1.656h-.828Zm5.364 0c-.336 0-.606-.082-.808-.246-.203-.164-.304-.455-.304-.873v-1.397h-.55v-.692h.55l.097-.86h.73v.86h.867v.692h-.867v1.403c0 .155.033.263.097.324.07.056.186.084.35.084h.4v.705h-.562Zm2.853 0v-4.528h.828v4.528h-.828Zm1.686 0v-3.208h.731l.065.543c.099-.19.241-.34.426-.453.19-.112.412-.168.667-.168.396 0 .705.125.925.375.22.25.33.617.33 1.1v1.81h-.829v-1.733c0-.276-.055-.487-.168-.633-.112-.147-.286-.22-.523-.22a.748.748 0 0 0-.576.245c-.147.164-.22.393-.22.686v1.656h-.828Zm4.77 0-1.177-3.208h.867l.814 2.425.815-2.425h.867l-1.184 3.208h-1.002Zm3.154-3.706a.535.535 0 0 1-.375-.136.454.454 0 0 1-.142-.343c0-.138.047-.25.142-.336.1-.09.224-.136.375-.136s.274.045.369.136c.1.086.149.198.149.336s-.05.253-.149.343a.512.512 0 0 1-.369.136Zm-.414 3.706v-3.208h.828v3.208h-.828Zm3.122 0c-.337 0-.606-.082-.809-.246-.203-.164-.304-.455-.304-.873v-1.397h-.55v-.692h.55l.097-.86h.731v.86h.867v.692h-.867v1.403c0 .155.032.263.097.324.069.056.185.084.35.084h.4v.705h-.562Zm2.398.077c-.276 0-.502-.043-.679-.13a.938.938 0 0 1-.394-.355.94.94 0 0 1-.13-.485c0-.297.117-.539.35-.724.232-.186.582-.278 1.047-.278h.815v-.078c0-.22-.062-.382-.187-.485a.707.707 0 0 0-.466-.155.785.785 0 0 0-.44.123.504.504 0 0 0-.233.349h-.808c.022-.233.1-.436.233-.608.138-.172.315-.304.53-.395.216-.094.457-.142.724-.142.458 0 .818.114 1.08.343.264.228.395.552.395.97v1.973h-.705l-.078-.518a1.187 1.187 0 0 1-.4.427c-.169.112-.386.168-.654.168Zm.188-.646c.237 0 .42-.078.55-.233.133-.156.217-.347.252-.576h-.705c-.22 0-.377.041-.472.123a.361.361 0 0 0-.142.291c0 .125.047.222.142.291.095.069.22.104.375.104Zm3.824.569c-.336 0-.606-.082-.808-.246-.203-.164-.304-.455-.304-.873v-1.397h-.55v-.692h.55l.097-.86h.73v.86h.867v.692h-.866v1.403c0 .155.032.263.097.324.069.056.185.084.349.084h.4v.705h-.562Zm1.74-3.706a.535.535 0 0 1-.376-.136.453.453 0 0 1-.142-.343c0-.138.047-.25.142-.336.1-.09.224-.136.375-.136s.274.045.369.136c.099.086.149.198.149.336s-.05.253-.15.343a.511.511 0 0 1-.368.136Zm-.415 3.706v-3.208h.828v3.208h-.828Zm3.231.077c-.31 0-.59-.07-.84-.213a1.604 1.604 0 0 1-.589-.589 1.771 1.771 0 0 1-.213-.88c0-.331.073-.622.22-.872.146-.255.342-.453.588-.595.25-.143.53-.214.84-.214.307 0 .583.071.829.214.25.142.446.34.588.595.147.25.22.54.22.873 0 .332-.073.625-.22.88-.142.25-.338.446-.588.588-.25.142-.529.213-.835.213Zm0-.718a.77.77 0 0 0 .563-.239c.16-.164.24-.405.24-.724 0-.32-.08-.559-.24-.718a.767.767 0 0 0-1.125 0c-.156.16-.233.399-.233.718 0 .319.078.56.233.724.16.16.347.24.562.24Zm2.383.64v-3.207h.731l.065.543c.099-.19.241-.34.427-.453.19-.112.411-.168.666-.168.396 0 .705.125.924.375.22.25.33.617.33 1.1v1.81h-.827v-1.733c0-.276-.056-.487-.169-.633-.112-.147-.286-.22-.523-.22a.748.748 0 0 0-.576.245c-.147.164-.22.393-.22.686v1.656h-.828Z" fill="#fff"/></g><path d="M17.267 73.369v-4.823h1.719c.373 0 .683.064.93.193.248.129.433.307.556.534.122.226.183.488.183.785 0 .295-.062.555-.186.78a1.251 1.251 0 0 1-.555.52c-.247.123-.557.186-.93.186H17.68v-.627h1.236c.236 0 .427-.034.575-.101a.67.67 0 0 0 .328-.294.97.97 0 0 0 .103-.464.998.998 0 0 0-.106-.474.684.684 0 0 0-.327-.306c-.148-.072-.342-.108-.582-.108h-.914v4.199h-.727Zm2.38-2.176 1.192 2.176h-.829l-1.168-2.176h.806Zm4.524-1.38a.688.688 0 0 0-.31-.518c-.183-.124-.412-.186-.688-.186a1.28 1.28 0 0 0-.513.094.79.79 0 0 0-.337.254.6.6 0 0 0-.118.365.54.54 0 0 0 .08.297.72.72 0 0 0 .214.21c.09.054.186.1.288.138.102.036.2.066.294.09l.471.122c.154.038.312.089.473.153.162.065.312.15.45.255a1.132 1.132 0 0 1 .464.949c0 .273-.07.516-.212.727-.14.212-.343.38-.61.502-.265.123-.586.184-.963.184a2.34 2.34 0 0 1-.937-.172 1.443 1.443 0 0 1-.62-.488 1.413 1.413 0 0 1-.247-.753h.73c.014.174.07.32.17.435.1.115.228.2.384.257.157.055.329.083.515.083.206 0 .389-.033.55-.097a.92.92 0 0 0 .38-.273.647.647 0 0 0 .14-.412.504.504 0 0 0-.123-.351.905.905 0 0 0-.327-.226 3.21 3.21 0 0 0-.464-.158l-.57-.156c-.386-.105-.692-.26-.918-.463-.225-.204-.337-.475-.337-.81 0-.278.075-.521.226-.728.15-.207.355-.368.612-.483a2.1 2.1 0 0 1 .871-.174c.327 0 .615.057.865.172.25.114.449.272.593.473.145.2.22.429.226.688h-.702Zm2.06-1.267 1.342 3.928h.054l1.342-3.928h.787l-1.736 4.823h-.84l-1.736-4.823h.786Zm4.221 4.823v-4.823h1.72c.375 0 .685.068.932.205.246.136.43.323.553.56.123.235.184.5.184.796 0 .297-.062.564-.186.8a1.346 1.346 0 0 1-.556.561c-.246.137-.556.205-.93.205h-1.182v-.617h1.116c.237 0 .43-.04.577-.122a.769.769 0 0 0 .325-.34c.069-.142.103-.305.103-.487a1.09 1.09 0 0 0-.103-.485.743.743 0 0 0-.327-.332c-.148-.08-.343-.12-.584-.12h-.914v4.199h-.728Zm9.89-4.823v4.823h-.669l-2.452-3.537h-.044v3.537h-.728v-4.823h.674l2.453 3.542h.045v-3.542h.72Zm2.528 4.896a1.66 1.66 0 0 1-.887-.233 1.572 1.572 0 0 1-.59-.653 2.176 2.176 0 0 1-.209-.98c0-.375.07-.703.21-.984.14-.28.336-.5.589-.654a1.66 1.66 0 0 1 .887-.234c.34 0 .636.078.888.234.253.155.45.373.589.654.14.281.21.61.21.984s-.07.7-.21.98c-.14.28-.336.497-.589.653a1.661 1.661 0 0 1-.888.233Zm.003-.591c.22 0 .402-.058.546-.175a1.01 1.01 0 0 0 .32-.464c.071-.193.106-.406.106-.638 0-.23-.035-.443-.106-.636a1.036 1.036 0 0 0-.32-.468.836.836 0 0 0-.546-.177.85.85 0 0 0-.551.177 1.053 1.053 0 0 0-.323.468 1.877 1.877 0 0 0-.104.636c0 .233.035.445.104.638.07.194.178.348.323.464.146.117.33.175.55.175Zm3.144.518-1.065-3.618h.728l.709 2.657h.035l.711-2.657h.728l.706 2.645h.036l.704-2.645h.728l-1.063 3.618h-.718l-.734-2.612h-.055l-.734 2.612h-.716Zm8.574-2.718v.612h-2.138v-.612h2.138Zm5.38-.838a.688.688 0 0 0-.31-.518c-.182-.124-.412-.186-.688-.186-.198 0-.369.03-.513.094a.79.79 0 0 0-.337.254.6.6 0 0 0-.118.365.54.54 0 0 0 .08.297.718.718 0 0 0 .215.21c.09.054.185.1.287.138.102.036.2.066.294.09l.471.122c.154.038.312.089.474.153.161.065.311.15.45.255a1.132 1.132 0 0 1 .464.949c0 .273-.071.516-.213.727-.14.212-.343.38-.61.502-.265.123-.586.184-.963.184a2.34 2.34 0 0 1-.937-.172 1.443 1.443 0 0 1-.62-.488 1.413 1.413 0 0 1-.247-.753h.73a.74.74 0 0 0 .17.435c.1.115.228.2.384.257.157.055.329.083.516.083.205 0 .388-.033.548-.097a.92.92 0 0 0 .382-.273.647.647 0 0 0 .139-.412.504.504 0 0 0-.123-.351.904.904 0 0 0-.327-.226 3.215 3.215 0 0 0-.464-.158l-.57-.156c-.386-.105-.692-.26-.918-.463-.225-.204-.337-.475-.337-.81 0-.278.075-.521.226-.728.15-.207.355-.368.612-.483.258-.116.548-.174.872-.174.326 0 .614.057.864.172.251.114.449.272.593.473.145.2.22.429.226.688h-.701Zm1.581 3.556V69.75h.705v3.618h-.705Zm.356-4.176a.447.447 0 0 1-.316-.122.398.398 0 0 1-.13-.297c0-.116.044-.215.13-.297a.443.443 0 0 1 .316-.124c.122 0 .227.041.313.124a.39.39 0 0 1 .132.297.395.395 0 0 1-.132.297.44.44 0 0 1-.313.122Zm2.812 5.608c-.287 0-.534-.038-.741-.114a1.436 1.436 0 0 1-.504-.299 1.257 1.257 0 0 1-.292-.407l.605-.25c.042.07.099.142.17.22a.885.885 0 0 0 .291.2c.124.054.284.082.479.082.266 0 .487-.065.661-.196.175-.128.262-.334.262-.617v-.71h-.045a1.612 1.612 0 0 1-.184.256.994.994 0 0 1-.325.245 1.21 1.21 0 0 1-.54.103c-.285 0-.542-.066-.772-.2a1.42 1.42 0 0 1-.541-.596c-.132-.263-.198-.587-.198-.972s.065-.714.196-.99a1.49 1.49 0 0 1 .541-.63c.23-.148.49-.222.78-.222.224 0 .405.038.544.113.138.074.245.16.322.26.079.098.14.186.182.26h.051v-.586h.69v3.698c0 .31-.072.566-.216.765-.145.2-.34.347-.587.443a2.26 2.26 0 0 1-.829.144Zm-.007-2.07a.897.897 0 0 0 .514-.142.88.88 0 0 0 .32-.41c.074-.179.11-.393.11-.642a1.76 1.76 0 0 0-.108-.643.955.955 0 0 0-.318-.434.837.837 0 0 0-.518-.157.837.837 0 0 0-.53.164.994.994 0 0 0-.32.443c-.07.187-.106.396-.106.627 0 .237.036.445.108.624a.923.923 0 0 0 .32.419c.144.1.32.15.528.15Zm2.584.638V69.75h.676v.59h.044a.935.935 0 0 1 .37-.467 1.09 1.09 0 0 1 .615-.17c.242 0 .444.057.607.17a.994.994 0 0 1 .365.466h.038c.086-.193.224-.347.412-.461a1.25 1.25 0 0 1 .674-.175c.328 0 .595.103.803.309.209.206.313.516.313.93v2.426h-.704v-2.36c0-.245-.067-.422-.2-.532a.728.728 0 0 0-.478-.165c-.23 0-.408.07-.535.212a.77.77 0 0 0-.19.54v2.305h-.703v-2.405a.63.63 0 0 0-.183-.473.656.656 0 0 0-.478-.18.684.684 0 0 0-.37.107.779.779 0 0 0-.27.29.888.888 0 0 0-.102.43v2.23h-.704Zm6.913.08c-.229 0-.436-.043-.621-.127a1.047 1.047 0 0 1-.44-.375 1.074 1.074 0 0 1-.16-.6.97.97 0 0 1 .117-.504.87.87 0 0 1 .318-.314c.133-.076.282-.135.447-.174.165-.04.333-.069.504-.09l.528-.06a.773.773 0 0 0 .294-.083c.061-.038.092-.099.092-.184v-.016c0-.206-.058-.365-.174-.478-.115-.113-.286-.17-.514-.17-.237 0-.424.053-.56.158a.843.843 0 0 0-.28.346l-.662-.15c.078-.22.193-.398.344-.533.152-.136.327-.235.525-.296a2.05 2.05 0 0 1 1.083-.043c.163.033.316.094.457.184.143.09.26.217.35.384.092.165.137.379.137.643v2.402h-.687v-.495h-.029c-.045.091-.113.18-.204.269a1.09 1.09 0 0 1-.351.219 1.361 1.361 0 0 1-.514.087Zm.153-.566c.195 0 .362-.038.5-.115a.808.808 0 0 0 .318-.301.783.783 0 0 0 .11-.403v-.466a.367.367 0 0 1-.146.07c-.07.02-.151.039-.242.054a27.84 27.84 0 0 1-.483.069 1.742 1.742 0 0 0-.374.087.643.643 0 0 0-.269.177.441.441 0 0 0-.099.301c0 .174.065.306.193.396a.854.854 0 0 0 .492.132Zm4.79.486h-.773l1.735-4.823h.841l1.736 4.823h-.773l-1.363-3.947h-.038l-1.366 3.947Zm.129-1.889h2.505v.612h-2.505v-.612Zm4.754-2.934v4.823h-.704v-4.823h.704Zm.947 6.18V69.75h.688v.587h.059c.04-.075.1-.163.176-.262a1 1 0 0 1 .32-.259c.137-.075.318-.113.542-.113.292 0 .553.074.782.222.23.147.409.36.54.638.131.278.197.612.197 1.003 0 .391-.065.726-.195 1.006-.13.278-.31.492-.537.643a1.39 1.39 0 0 1-.78.223c-.22 0-.4-.037-.54-.11a1.022 1.022 0 0 1-.324-.26 1.962 1.962 0 0 1-.181-.263h-.043v1.92h-.704Zm.69-3.166c0 .254.037.477.11.669.075.191.181.341.321.45.14.106.31.16.513.16a.83.83 0 0 0 .528-.167 1.04 1.04 0 0 0 .32-.46c.074-.193.11-.41.11-.652a1.8 1.8 0 0 0-.107-.643.985.985 0 0 0-.32-.45.837.837 0 0 0-.53-.165.843.843 0 0 0-.519.158.97.97 0 0 0-.318.44 1.838 1.838 0 0 0-.108.66Zm4.107-.34v2.149h-.704v-4.823h.695v1.794h.044a1.04 1.04 0 0 1 .389-.464c.174-.114.402-.172.683-.172.248 0 .465.051.65.153.187.102.331.255.433.457.104.201.156.452.156.754v2.3h-.704v-2.215c0-.266-.069-.471-.205-.617-.137-.148-.327-.222-.57-.222a.933.933 0 0 0-.448.106.765.765 0 0 0-.308.311c-.074.135-.11.298-.11.49Zm4.338 2.229a1.49 1.49 0 0 1-.622-.127 1.047 1.047 0 0 1-.44-.375 1.074 1.074 0 0 1-.16-.6.98.98 0 0 1 .117-.504.87.87 0 0 1 .318-.314 1.66 1.66 0 0 1 .448-.174c.165-.04.333-.069.504-.09l.527-.06a.773.773 0 0 0 .295-.083c.061-.038.092-.099.092-.184v-.016c0-.206-.059-.365-.175-.478-.114-.113-.285-.17-.513-.17-.237 0-.424.053-.56.158a.844.844 0 0 0-.28.346l-.662-.15a1.275 1.275 0 0 1 .868-.829 2.05 2.05 0 0 1 1.084-.043c.163.033.315.094.457.184.142.09.26.217.35.384.091.165.137.379.137.643v2.402h-.688v-.495h-.028c-.045.091-.114.18-.205.269a1.09 1.09 0 0 1-.35.219 1.361 1.361 0 0 1-.514.087Zm.153-.566c.195 0 .361-.038.5-.115a.808.808 0 0 0 .317-.301.782.782 0 0 0 .11-.403v-.466a.367.367 0 0 1-.145.07c-.07.02-.152.039-.243.054a27.382 27.382 0 0 1-.482.069 1.744 1.744 0 0 0-.375.087.64.64 0 0 0-.268.177.44.44 0 0 0-.1.301.45.45 0 0 0 .194.396.854.854 0 0 0 .492.132Zm4.382.486v-4.823h3.023v.626H99.38v1.47h2.138v.624H99.38v1.476h2.325v.627h-3.052Zm3.939 1.356v-4.974h.687v.587h.059c.041-.075.1-.163.177-.262a1.02 1.02 0 0 1 .32-.259c.137-.075.317-.113.542-.113.292 0 .552.074.782.222.229.147.409.36.539.638.132.278.198.612.198 1.003 0 .391-.065.726-.196 1.006a1.52 1.52 0 0 1-.537.643 1.388 1.388 0 0 1-.779.223c-.22 0-.4-.037-.539-.11a1.006 1.006 0 0 1-.325-.26 1.985 1.985 0 0 1-.182-.263h-.042v1.92h-.704Zm.69-3.165c0 .254.037.477.11.669.074.191.181.341.321.45.139.106.311.16.513.16.21 0 .386-.056.528-.167a1.04 1.04 0 0 0 .32-.46c.074-.193.111-.41.111-.652 0-.239-.037-.453-.109-.643a.978.978 0 0 0-.32-.45.837.837 0 0 0-.53-.165.842.842 0 0 0-.518.158.966.966 0 0 0-.318.44 1.842 1.842 0 0 0-.108.66Zm6.113-.925-.638.113a.764.764 0 0 0-.127-.234.637.637 0 0 0-.231-.18.835.835 0 0 0-.365-.072.876.876 0 0 0-.499.135c-.134.088-.2.201-.2.341 0 .121.044.218.134.292.089.074.234.134.433.181l.575.132c.333.077.581.196.744.356.163.16.245.368.245.624 0 .217-.063.41-.189.58-.124.167-.297.3-.52.395a1.923 1.923 0 0 1-.77.144c-.405 0-.736-.087-.991-.26a1.095 1.095 0 0 1-.471-.741l.68-.104c.043.178.13.312.262.403.131.09.303.134.515.134.231 0 .416-.048.554-.143.138-.098.207-.216.207-.356a.369.369 0 0 0-.127-.285c-.083-.077-.211-.135-.384-.174l-.612-.135c-.338-.077-.588-.199-.749-.367a.888.888 0 0 1-.24-.638c0-.214.059-.4.178-.56.12-.16.285-.286.495-.375.21-.091.451-.137.723-.137.391 0 .699.085.923.255.225.168.373.393.445.675Zm.845 2.734V69.75h.704v3.618h-.704Zm.356-4.176a.448.448 0 0 1-.316-.122.399.399 0 0 1-.129-.297c0-.116.043-.215.129-.297a.443.443 0 0 1 .316-.124c.122 0 .227.041.313.124a.39.39 0 0 1 .132.297.395.395 0 0 1-.132.297.439.439 0 0 1-.313.122Zm2-.647v4.823h-.705v-4.823h.705Zm2.471 4.896a1.66 1.66 0 0 1-.888-.233 1.573 1.573 0 0 1-.589-.653c-.14-.28-.21-.606-.21-.98 0-.375.07-.703.21-.984.14-.28.336-.5.589-.654a1.66 1.66 0 0 1 .888-.234c.339 0 .635.078.887.234.253.155.449.373.589.654.14.281.21.61.21.984s-.07.7-.21.98c-.14.28-.336.497-.589.653a1.656 1.656 0 0 1-.887.233Zm.002-.591c.22 0 .402-.058.546-.175a1.02 1.02 0 0 0 .321-.464 1.86 1.86 0 0 0 .106-.638c0-.23-.036-.443-.106-.636a1.04 1.04 0 0 0-.321-.468.834.834 0 0 0-.546-.177.85.85 0 0 0-.551.177 1.051 1.051 0 0 0-.323.468 1.878 1.878 0 0 0-.103.636c0 .233.034.445.103.638.071.194.178.348.323.464.146.117.33.175.551.175Zm3.174-1.63v2.148h-.704V69.75h.676v.59h.044a1.04 1.04 0 0 1 .391-.462c.179-.117.405-.175.676-.175.247 0 .462.052.648.156.185.102.329.254.431.457.102.202.153.453.153.75v2.302h-.704v-2.216c0-.263-.069-.467-.205-.615-.137-.15-.324-.224-.563-.224a.884.884 0 0 0-.436.106.767.767 0 0 0-.299.311 1.029 1.029 0 0 0-.108.49ZM17.21 81.369V77.75h.704v3.618h-.704Zm.356-4.176a.447.447 0 0 1-.316-.122.398.398 0 0 1-.13-.297c0-.116.044-.215.13-.297a.443.443 0 0 1 .316-.124c.122 0 .227.041.313.124a.39.39 0 0 1 .132.297.395.395 0 0 1-.132.297.44.44 0 0 1-.313.122Zm2 2.028v2.148h-.704V77.75h.676v.59h.044c.083-.192.214-.346.391-.462.18-.117.404-.175.676-.175.246 0 .462.052.648.156.185.102.328.254.43.457.103.202.154.453.154.75v2.302h-.704v-2.216c0-.263-.069-.467-.205-.615-.137-.15-.325-.224-.563-.224a.883.883 0 0 0-.436.106.763.763 0 0 0-.299.311 1.026 1.026 0 0 0-.108.49Zm6.224-1.47-1.312 3.618h-.753L22.41 77.75h.756l.916 2.784h.038l.914-2.784h.756Zm.662 3.618V77.75h.704v3.618h-.704Zm.355-4.176a.447.447 0 0 1-.315-.122.398.398 0 0 1-.13-.297c0-.116.043-.215.13-.297a.443.443 0 0 1 .315-.124c.123 0 .227.041.313.124a.39.39 0 0 1 .132.297.395.395 0 0 1-.132.297.439.439 0 0 1-.313.122Zm2.985.558v.566h-1.976v-.566h1.976Zm-1.446-.866h.704v3.422c0 .136.02.239.061.308a.32.32 0 0 0 .158.139.631.631 0 0 0 .214.035.828.828 0 0 0 .148-.011l.1-.02.127.582a1.378 1.378 0 0 1-.457.075 1.24 1.24 0 0 1-.518-.098.888.888 0 0 1-.389-.32.942.942 0 0 1-.148-.544v-3.568Zm3.745 4.557c-.357 0-.664-.076-.921-.229a1.549 1.549 0 0 1-.594-.647 2.19 2.19 0 0 1-.207-.982c0-.37.07-.698.207-.98.14-.283.335-.503.584-.662.252-.158.545-.238.881-.238.204 0 .402.034.594.102a1.422 1.422 0 0 1 .875.88c.089.23.133.508.133.836v.25h-2.876v-.528h2.186c0-.185-.038-.349-.114-.492a.855.855 0 0 0-.793-.466.92.92 0 0 0-.518.146.98.98 0 0 0-.34.377 1.088 1.088 0 0 0-.117.501v.412c0 .242.042.448.127.618a.91.91 0 0 0 .36.388c.154.088.334.132.54.132.133 0 .255-.019.365-.056a.756.756 0 0 0 .469-.46l.666.12c-.054.197-.15.368-.288.516-.136.146-.308.26-.515.342-.206.08-.44.12-.704.12Zm3.687-.003c-.292 0-.553-.074-.782-.223a1.525 1.525 0 0 1-.537-.643c-.129-.28-.193-.615-.193-1.006 0-.39.065-.725.196-1.003.131-.278.312-.49.541-.638.23-.148.49-.222.78-.222.224 0 .405.038.541.113.138.074.245.16.32.26.077.098.137.186.18.26h.042v-1.791h.704v4.823h-.688v-.563h-.058a1.863 1.863 0 0 1-.184.264 1.02 1.02 0 0 1-.325.259c-.138.073-.317.11-.537.11Zm.155-.6a.82.82 0 0 0 .514-.16.99.99 0 0 0 .32-.45c.074-.192.11-.415.11-.669 0-.251-.035-.471-.108-.66a.97.97 0 0 0-.318-.44.837.837 0 0 0-.518-.157.837.837 0 0 0-.53.164c-.14.11-.248.26-.32.45-.07.19-.106.404-.106.643 0 .242.036.46.109.652.072.194.178.346.32.46a.831.831 0 0 0 .527.167Zm4.842 1.886a1.467 1.467 0 0 1-.48-.078l.17-.577c.128.035.243.05.343.045.1-.004.19-.042.266-.113a.87.87 0 0 0 .207-.346l.088-.24-1.324-3.665h.754l.916 2.807h.037l.916-2.807h.756l-1.49 4.1a1.64 1.64 0 0 1-.264.478 1.024 1.024 0 0 1-.382.297 1.249 1.249 0 0 1-.513.1Zm4.712-1.283c-.34 0-.635-.078-.888-.233a1.573 1.573 0 0 1-.589-.653c-.14-.28-.21-.606-.21-.98 0-.375.07-.703.21-.984.14-.28.336-.5.589-.654a1.66 1.66 0 0 1 .888-.234c.339 0 .635.078.888.234.252.155.449.373.588.654.14.281.21.61.21.984s-.07.7-.21.98a1.58 1.58 0 0 1-.588.653 1.66 1.66 0 0 1-.888.233Zm.002-.591c.22 0 .402-.058.547-.175a1.02 1.02 0 0 0 .32-.464 1.86 1.86 0 0 0 .106-.638c0-.23-.036-.443-.106-.636a1.036 1.036 0 0 0-.32-.468.836.836 0 0 0-.547-.177.85.85 0 0 0-.55.177 1.052 1.052 0 0 0-.324.468 1.877 1.877 0 0 0-.103.636c0 .233.034.445.103.638.071.194.179.348.323.464.146.117.33.175.551.175Zm4.761-.983v-2.117h.707v3.618h-.693v-.627h-.037a1.129 1.129 0 0 1-.4.483 1.16 1.16 0 0 1-.681.19c-.233 0-.438-.05-.617-.152a1.076 1.076 0 0 1-.42-.46c-.1-.202-.15-.453-.15-.75V77.75h.704v2.216c0 .247.068.443.205.59a.696.696 0 0 0 .532.218.864.864 0 0 0 .72-.398.894.894 0 0 0 .13-.508Zm5.096-2.117v.566h-1.975v-.566h1.975Zm-1.445-.866h.704v3.422c0 .136.02.239.06.308a.32.32 0 0 0 .159.139.631.631 0 0 0 .214.035.828.828 0 0 0 .148-.011l.1-.02.126.582a1.378 1.378 0 0 1-.457.075 1.24 1.24 0 0 1-.518-.098.888.888 0 0 1-.388-.32.942.942 0 0 1-.148-.544v-3.568Zm3.71 4.557c-.34 0-.636-.078-.889-.233a1.572 1.572 0 0 1-.588-.653c-.14-.28-.21-.606-.21-.98 0-.375.07-.703.21-.984.14-.28.336-.5.588-.654a1.66 1.66 0 0 1 .888-.234c.34 0 .635.078.888.234.253.155.449.373.589.654.14.281.21.61.21.984s-.07.7-.21.98c-.14.28-.336.497-.589.653a1.661 1.661 0 0 1-.888.233Zm.002-.591a.84.84 0 0 0 .546-.175 1.02 1.02 0 0 0 .32-.464 1.86 1.86 0 0 0 .106-.638c0-.23-.035-.443-.106-.636a1.035 1.035 0 0 0-.32-.468.836.836 0 0 0-.547-.177.85.85 0 0 0-.55.177 1.052 1.052 0 0 0-.323.468c-.07.193-.104.405-.104.636 0 .233.035.445.104.638.07.194.178.348.323.464.146.117.33.175.55.175Zm2.933.562a.457.457 0 0 1-.332-.136.456.456 0 0 1-.139-.335c0-.128.046-.238.14-.33a.453.453 0 0 1 .331-.138.45.45 0 0 1 .332.139.446.446 0 0 1 .14.33.45.45 0 0 1-.067.237.487.487 0 0 1-.17.17.449.449 0 0 1-.235.063Zm0-2.632a.453.453 0 0 1-.332-.14.453.453 0 0 1-.139-.331c0-.13.046-.24.14-.33a.453.453 0 0 1 .331-.14c.129 0 .24.047.332.14.093.09.14.2.14.33a.487.487 0 0 1-.236.407.449.449 0 0 1-.236.064Zm4.787 2.588h-1.561v-4.823h1.61c.473 0 .88.096 1.218.29.34.19.6.466.78.826.182.358.273.787.273 1.288 0 .502-.092.934-.276 1.295a1.934 1.934 0 0 1-.79.834c-.346.193-.764.29-1.254.29Zm-.833-.636h.793c.368 0 .673-.07.916-.207.244-.14.426-.342.547-.606.12-.265.181-.588.181-.97 0-.378-.06-.7-.181-.963a1.281 1.281 0 0 0-.535-.6c-.237-.137-.531-.206-.883-.206H64.5v3.552Zm5.525.709c-.34 0-.635-.078-.888-.233a1.572 1.572 0 0 1-.589-.653c-.14-.28-.21-.606-.21-.98 0-.375.07-.703.21-.984.14-.28.336-.5.59-.654a1.66 1.66 0 0 1 .887-.234c.34 0 .635.078.888.234.252.155.449.373.588.654.14.281.21.61.21.984s-.07.7-.21.98a1.58 1.58 0 0 1-.588.653 1.661 1.661 0 0 1-.888.233Zm.002-.591c.22 0 .402-.058.547-.175a1.02 1.02 0 0 0 .32-.464 1.86 1.86 0 0 0 .106-.638c0-.23-.035-.443-.106-.636a1.035 1.035 0 0 0-.32-.468.836.836 0 0 0-.547-.177.85.85 0 0 0-.55.177 1.053 1.053 0 0 0-.323.468c-.07.193-.104.405-.104.636 0 .233.035.445.104.638.07.194.178.348.322.464.146.117.33.175.551.175Zm3.824.588c-.292 0-.552-.074-.782-.223a1.525 1.525 0 0 1-.537-.643c-.128-.28-.193-.615-.193-1.006 0-.39.065-.725.196-1.003.132-.278.312-.49.541-.638.23-.148.49-.222.78-.222.224 0 .405.038.541.113.139.074.245.16.32.26.078.098.137.186.18.26h.042v-1.791h.704v4.823h-.687v-.563h-.06a1.863 1.863 0 0 1-.183.264 1.02 1.02 0 0 1-.325.259c-.138.073-.317.11-.537.11Zm.156-.6a.82.82 0 0 0 .513-.16.99.99 0 0 0 .32-.45c.074-.192.11-.415.11-.669a1.85 1.85 0 0 0-.107-.66.97.97 0 0 0-.318-.44.837.837 0 0 0-.518-.157.837.837 0 0 0-.53.164c-.142.11-.248.26-.32.45-.071.19-.106.404-.106.643 0 .242.036.46.108.652.072.194.179.346.32.46a.831.831 0 0 0 .528.167Zm4.158 1.962a2.16 2.16 0 0 1-.742-.114 1.436 1.436 0 0 1-.504-.299 1.257 1.257 0 0 1-.292-.407l.605-.25c.043.07.1.142.17.22a.89.89 0 0 0 .292.2c.124.054.283.082.478.082.267 0 .487-.065.662-.196.174-.128.261-.334.261-.617v-.71h-.045a1.604 1.604 0 0 1-.183.256.994.994 0 0 1-.325.245 1.21 1.21 0 0 1-.54.103c-.285 0-.543-.066-.772-.2a1.42 1.42 0 0 1-.542-.596c-.132-.263-.198-.587-.198-.972s.066-.714.196-.99a1.49 1.49 0 0 1 .542-.63c.229-.148.489-.222.78-.222.224 0 .405.038.543.113.138.074.246.16.323.26.078.098.139.186.181.26h.052v-.586h.69v3.698c0 .31-.072.566-.217.765-.144.2-.34.347-.586.443a2.26 2.26 0 0 1-.83.144Zm-.007-2.07a.897.897 0 0 0 .513-.142.88.88 0 0 0 .32-.41c.074-.179.111-.393.111-.642 0-.244-.036-.458-.108-.643a.955.955 0 0 0-.318-.434.837.837 0 0 0-.518-.157.837.837 0 0 0-.53.164.994.994 0 0 0-.32.443 1.755 1.755 0 0 0-.106.627c0 .237.036.445.108.624a.923.923 0 0 0 .32.419c.143.1.319.15.528.15Zm4.142.71c-.356 0-.663-.076-.92-.228a1.549 1.549 0 0 1-.594-.647 2.19 2.19 0 0 1-.207-.982c0-.37.069-.698.207-.98a1.61 1.61 0 0 1 .584-.662c.251-.158.545-.238.88-.238.205 0 .403.034.594.102.192.067.364.173.516.318.152.144.272.332.36.562.088.23.132.508.132.836v.25h-2.875v-.528h2.185c0-.185-.038-.349-.113-.492a.855.855 0 0 0-.794-.466.92.92 0 0 0-.518.146.98.98 0 0 0-.339.377 1.088 1.088 0 0 0-.117.501v.412c0 .242.042.448.127.618a.91.91 0 0 0 .36.388c.154.088.334.132.54.132.133 0 .254-.019.364-.056a.756.756 0 0 0 .469-.46l.666.12a1.203 1.203 0 0 1-.287.516c-.136.146-.308.26-.516.342-.205.08-.44.12-.704.12Zm2.39-.072v-4.823h.704v1.792h.042c.041-.075.1-.163.177-.262a1 1 0 0 1 .32-.259c.137-.075.317-.113.542-.113.292 0 .553.074.782.222.229.147.409.36.54.638.131.278.197.612.197 1.003 0 .391-.065.726-.195 1.006-.13.278-.31.492-.538.643a1.39 1.39 0 0 1-.779.223c-.22 0-.4-.037-.54-.11a1.021 1.021 0 0 1-.324-.26 1.964 1.964 0 0 1-.182-.263h-.058v.563h-.688Zm.69-1.809c0 .254.037.477.11.669.074.191.181.341.32.45.14.106.312.16.514.16.21 0 .386-.056.528-.167a1.04 1.04 0 0 0 .32-.46c.074-.193.11-.41.11-.652a1.8 1.8 0 0 0-.108-.643.985.985 0 0 0-.32-.45.837.837 0 0 0-.53-.165.843.843 0 0 0-.518.158.97.97 0 0 0-.318.44 1.838 1.838 0 0 0-.108.66Zm4.457 1.889c-.229 0-.436-.043-.621-.127a1.047 1.047 0 0 1-.44-.375 1.074 1.074 0 0 1-.161-.6c0-.204.04-.372.118-.504a.87.87 0 0 1 .318-.314 1.66 1.66 0 0 1 .447-.174c.165-.04.333-.069.504-.09l.528-.06a.774.774 0 0 0 .294-.083c.061-.038.092-.099.092-.184v-.016c0-.206-.058-.365-.174-.478-.115-.113-.286-.17-.514-.17-.237 0-.424.053-.56.158a.844.844 0 0 0-.28.346l-.662-.15c.078-.22.193-.398.344-.533.152-.136.327-.235.525-.296a2.05 2.05 0 0 1 1.083-.043c.163.033.316.094.457.184.143.09.26.217.35.384.092.165.137.379.137.643v2.402h-.687v-.495h-.029a1 1 0 0 1-.205.269c-.09.088-.207.16-.35.219a1.36 1.36 0 0 1-.514.087Zm.153-.566c.195 0 .361-.038.5-.115a.808.808 0 0 0 .318-.301.782.782 0 0 0 .11-.403v-.466a.367.367 0 0 1-.146.07c-.07.02-.151.039-.242.054a26.916 26.916 0 0 1-.483.069 1.744 1.744 0 0 0-.375.087.64.64 0 0 0-.268.177.44.44 0 0 0-.099.301.45.45 0 0 0 .193.396.854.854 0 0 0 .492.132Zm3.274-4.337v4.823h-.704v-4.823h.704Zm1.652 0v4.823h-.704v-4.823h.704Z" fill="#000"/><path d="M18.247 91.318c-.82 0-1.338-.583-1.338-1.501v-.003c0-.91.53-1.493 1.332-1.493.719 0 1.144.477 1.205.971l.002.022h-.471l-.006-.022c-.072-.289-.305-.544-.73-.544-.502 0-.838.416-.838 1.071v.003c0 .672.344 1.069.844 1.069.394 0 .646-.222.727-.544l.005-.022h.475l-.003.019c-.078.55-.552.974-1.204.974Zm2.495 0c-.575 0-.96-.347-.96-.871v-.006c0-.491.383-.8 1.046-.838l.827-.047v-.242c0-.352-.23-.566-.633-.566-.372 0-.605.178-.66.436l-.006.025h-.466l.003-.03c.041-.475.455-.858 1.135-.858.683 0 1.11.369 1.11.946v1.996h-.483v-.47h-.011a1.02 1.02 0 0 1-.902.525Zm-.466-.871c0 .277.227.452.574.452.455 0 .805-.314.805-.733v-.236l-.772.048c-.385.022-.607.194-.607.463v.006Zm2.475.816v-2.887h.483v.422h.011c.13-.286.42-.477.791-.477.394 0 .686.202.81.555h.012c.16-.347.5-.555.905-.555.571 0 .94.374.94.949v1.993h-.482V89.38c0-.397-.22-.633-.6-.633-.383 0-.652.286-.652.68v1.835h-.483v-1.935c0-.35-.233-.58-.591-.58-.383 0-.66.303-.66.705v1.81h-.484Zm4.569.971v-3.858h.483v.489h.01c.181-.336.503-.544.917-.544.738 0 1.226.588 1.226 1.498v.003c0 .91-.494 1.496-1.218 1.496-.408 0-.744-.205-.924-.538h-.011v1.454h-.483Zm1.315-1.343c.511 0 .827-.411.827-1.069v-.003c0-.663-.316-1.07-.827-1.07-.488 0-.835.424-.835 1.07v.003c0 .644.35 1.069.835 1.069Zm2.795.427c-.633 0-.999-.41-.999-1.068v-1.874h.483v1.788c0 .469.22.727.663.727.456 0 .753-.325.753-.816v-1.699h.483v2.887h-.483v-.411h-.012c-.155.27-.45.466-.888.466Zm3.037 0c-.68 0-1.091-.347-1.15-.863l-.002-.025h.483l.005.028c.059.288.272.458.666.458.392 0 .625-.164.625-.425v-.003c0-.208-.108-.324-.436-.405l-.458-.11c-.544-.131-.807-.384-.807-.8v-.003c0-.497.435-.85 1.06-.85.633 0 1.035.37 1.071.853l.003.036h-.46l-.004-.02c-.038-.28-.252-.466-.61-.466-.35 0-.566.17-.566.425v.002c0 .198.13.334.45.411l.457.111c.583.142.794.372.794.783v.003c0 .505-.477.86-1.121.86Zm1.623-.055v-2.887h.483v.489h.011c.097-.333.347-.544.672-.544.083 0 .155.014.194.02v.468a.97.97 0 0 0-.258-.028c-.374 0-.619.261-.619.7v1.782h-.483Zm2.74.055c-.633 0-1-.41-1-1.068v-1.874h.483v1.788c0 .469.22.727.664.727.455 0 .752-.325.752-.816v-1.699h.483v2.887h-.483v-.411h-.011c-.156.27-.45.466-.888.466Zm3.036 0c-.68 0-1.09-.347-1.149-.863l-.003-.025h.483l.006.028c.058.288.272.458.666.458.391 0 .624-.164.624-.425v-.003c0-.208-.108-.324-.435-.405l-.458-.11c-.544-.131-.808-.384-.808-.8v-.003c0-.497.436-.85 1.06-.85.633 0 1.036.37 1.072.853l.002.036h-.46l-.003-.02c-.039-.28-.253-.466-.61-.466-.35 0-.567.17-.567.425v.002c0 .198.13.334.45.411l.458.111c.582.142.793.372.793.783v.003c0 .505-.477.86-1.12.86Zm1.649-.055v-4.005h.483v1.579h.01c.156-.325.47-.516.9-.516.614 0 1.033.474 1.033 1.174v1.768h-.483v-1.685c0-.522-.267-.83-.716-.83-.447 0-.744.339-.744.83v1.685h-.483Zm3.336.039a.313.313 0 0 1-.316-.317c0-.177.138-.316.316-.316s.316.139.316.316a.313.313 0 0 1-.316.317Zm1.768.016c-.575 0-.96-.347-.96-.871v-.006c0-.491.383-.8 1.046-.838l.827-.047v-.242c0-.352-.23-.566-.633-.566-.372 0-.605.178-.66.436l-.006.025h-.466l.003-.03c.041-.475.455-.858 1.135-.858.683 0 1.11.369 1.11.946v1.996h-.483v-.47h-.011a1.02 1.02 0 0 1-.902.525Zm-.466-.871c0 .277.227.452.574.452.455 0 .805-.314.805-.733v-.236l-.771.048c-.386.022-.608.194-.608.463v.006Zm2.475 1.787v-3.858h.483v.489h.011c.18-.336.503-.544.916-.544.739 0 1.227.588 1.227 1.498v.003c0 .91-.494 1.496-1.218 1.496-.408 0-.744-.205-.925-.538h-.01v1.454h-.484Zm1.316-1.343c.51 0 .827-.411.827-1.069v-.003c0-.663-.316-1.07-.827-1.07-.489 0-.836.424-.836 1.07v.003c0 .644.35 1.069.836 1.069Zm1.81 1.343v-3.858h.483v.489h.01c.181-.336.503-.544.916-.544.739 0 1.227.588 1.227 1.498v.003c0 .91-.494 1.496-1.218 1.496-.408 0-.744-.205-.924-.538h-.011v1.454h-.483Zm1.315-1.343c.51 0 .827-.411.827-1.069v-.003c0-.663-.316-1.07-.827-1.07-.488 0-.835.424-.835 1.07v.003c0 .644.35 1.069.835 1.069Z" fill="#64748B"/></g></g><defs><clipPath id="Frame 2__b"><rect x="12" y="2" width="121.263" height="96" rx="5.684" fill="#fff"/></clipPath><clipPath id="Frame 2__c"><path fill="#fff" transform="translate(12 2)" d="M0 0h121.263v60.632H0z"/></clipPath><linearGradient id="Frame 2__d" x1="72.632" y1="21.242" x2="72.632" y2="28.744" gradientUnits="userSpaceOnUse"><stop stop-color="#fff"/><stop offset="1" stop-color="#fff" stop-opacity=".9"/></linearGradient><filter id="Frame 2__a" x="0" y="0" width="145.263" height="120" filterUnits="userSpaceOnUse" color-interpolation-filters="sRGB"><feFlood flood-opacity="0" result="BackgroundImageFix"/><feColorMatrix in="SourceAlpha" values="0 0 0 0 0 0 0 0 0 0 0 0 0 0 0 0 0 0 127 0" result="hardAlpha"/><feMorphology radius="3" in="SourceAlpha" result="effect1_dropShadow_378_3711"/><feOffset dy="10"/><feGaussianBlur stdDeviation="7.5"/><feComposite in2="hardAlpha" operator="out"/><feColorMatrix values="0 0 0 0 0 0 0 0 0 0 0 0 0 0 0 0 0 0 0.1 0"/><feBlend in2="BackgroundImageFix" result="effect1_dropShadow_378_3711"/><feColorMatrix in="SourceAlpha" values="0 0 0 0 0 0 0 0 0 0 0 0 0 0 0 0 0 0 127 0" result="hardAlpha"/><feMorphology radius="4" in="SourceAlpha" result="effect2_dropShadow_378_3711"/><feOffset dy="4"/><feGaussianBlur stdDeviation="3"/><feComposite in2="hardAlpha" operator="out"/><feColorMatrix values="0 0 0 0 0 0 0 0 0 0 0 0 0 0 0 0 0 0 0.1 0"/><feBlend in2="effect1_dropShadow_378_3711" result="effect2_dropShadow_378_3711"/><feBlend in="SourceGraphic" in2="effect2_dropShadow_378_3711" result="shape"/></filter></defs></svg>