<svg width="92" height="86" fill="none" xmlns="http://www.w3.org/2000/svg"><path fill-rule="evenodd" clip-rule="evenodd" d="M89.512-7.257c12.565 3.367 18.531 13.7 15.165 26.265L92.484 64.512c-3.367 12.565-13.7 18.531-26.265 15.165L20.715 67.484C8.15 64.117 2.184 53.784 5.55 41.219L17.743-4.285c3.367-12.565 13.7-18.531 26.265-15.165L89.512-7.257Z" fill="url(#App logo 46__a)"/><mask id="App logo 46__b" style="mask-type:alpha" maskUnits="userSpaceOnUse" x="4" y="-21" width="102" height="102"><path fill-rule="evenodd" clip-rule="evenodd" d="M89.512-7.257c12.565 3.367 18.531 13.7 15.165 26.265L92.484 64.512c-3.367 12.565-13.7 18.531-26.265 15.165L20.715 67.484C8.15 64.117 2.184 53.784 5.55 41.219L17.743-4.285c3.367-12.565 13.7-18.531 26.265-15.165L89.512-7.257Z" fill="#fff"/></mask><g mask="url(#App logo 46__b)"><path fill-rule="evenodd" clip-rule="evenodd" d="M15.45 109.203c33.853 9.071 68.648-11.019 77.719-44.871C102.24 30.48 82.15-4.316 48.299-13.387c-33.853-9.07-68.649 11.019-77.72 44.871-9.07 33.852 11.02 68.648 44.871 77.719Z" fill="url(#App logo 46__c)"/></g><g filter="url(#App logo 46__d)"><path fill-rule="evenodd" clip-rule="evenodd" d="M48.423.75C41.53-1.095 34.446 2.995 32.599 9.887l-7.234 26.997c-1.846 6.893 2.244 13.977 9.136 15.824l27.337 7.325c6.892 1.846 13.976-2.244 15.823-9.136L84.895 23.9c1.847-6.892-2.243-13.977-9.136-15.824L48.423.751ZM26.656 8.295C29.384-1.88 39.842-7.918 50.017-5.192l27.336 7.325C87.526 4.859 93.564 15.317 90.838 25.49l-7.234 26.997C80.878 62.663 70.42 68.701 60.245 65.974L32.91 58.65c-10.175-2.726-16.213-13.184-13.486-23.358l7.234-26.997Z" fill="#fff"/></g><g filter="url(#App logo 46__e)"><path fill-rule="evenodd" clip-rule="evenodd" d="M38.253 26.141c2.5-9.33 12.09-14.867 21.42-12.367 9.331 2.5 14.868 12.09 12.368 21.42-2.5 9.331-12.09 14.868-21.42 12.368-9.331-2.5-14.869-12.09-12.368-21.42Zm19.828-6.424c-6.048-1.621-12.265 1.968-13.886 8.017-1.62 6.048 1.969 12.265 8.017 13.886 6.049 1.62 12.266-1.969 13.886-8.017 1.621-6.049-1.968-12.266-8.017-13.886Z" fill="#fff"/></g><g filter="url(#App logo 46__f)"><path fill-rule="evenodd" clip-rule="evenodd" d="M75.76 21.997a4.219 4.219 0 1 0 2.183-8.15 4.219 4.219 0 0 0-2.183 8.15Z" fill="#fff"/></g><defs><filter id="App logo 46__d" x="17.268" y="-7.347" width="75.724" height="75.476" filterUnits="userSpaceOnUse" color-interpolation-filters="sRGB"><feFlood flood-opacity="0" result="BackgroundImageFix"/><feColorMatrix in="SourceAlpha" values="0 0 0 0 0 0 0 0 0 0 0 0 0 0 0 0 0 0 127 0" result="hardAlpha"/><feOffset/><feGaussianBlur stdDeviation=".75"/><feColorMatrix values="0 0 0 0 0 0 0 0 0 0 0 0 0 0 0 0 0 0 0.130633 0"/><feBlend in2="BackgroundImageFix" result="effect1_dropShadow_378_3681"/><feBlend in="SourceGraphic" in2="effect1_dropShadow_378_3681" result="shape"/></filter><filter id="App logo 46__e" x="36.152" y="11.673" width="37.989" height="37.989" filterUnits="userSpaceOnUse" color-interpolation-filters="sRGB"><feFlood flood-opacity="0" result="BackgroundImageFix"/><feColorMatrix in="SourceAlpha" values="0 0 0 0 0 0 0 0 0 0 0 0 0 0 0 0 0 0 127 0" result="hardAlpha"/><feOffset/><feGaussianBlur stdDeviation=".75"/><feColorMatrix values="0 0 0 0 0 0 0 0 0 0 0 0 0 0 0 0 0 0 0.130633 0"/><feBlend in2="BackgroundImageFix" result="effect1_dropShadow_378_3681"/><feBlend in="SourceGraphic" in2="effect1_dropShadow_378_3681" result="shape"/></filter><filter id="App logo 46__f" x="71.132" y="12.202" width="11.44" height="11.44" filterUnits="userSpaceOnUse" color-interpolation-filters="sRGB"><feFlood flood-opacity="0" result="BackgroundImageFix"/><feColorMatrix in="SourceAlpha" values="0 0 0 0 0 0 0 0 0 0 0 0 0 0 0 0 0 0 127 0" result="hardAlpha"/><feOffset/><feGaussianBlur stdDeviation=".75"/><feColorMatrix values="0 0 0 0 0 0 0 0 0 0 0 0 0 0 0 0 0 0 0.130633 0"/><feBlend in2="BackgroundImageFix" result="effect1_dropShadow_378_3681"/><feBlend in="SourceGraphic" in2="effect1_dropShadow_378_3681" result="shape"/></filter><radialGradient id="App logo 46__c" cx="0" cy="0" r="1" gradientUnits="userSpaceOnUse" gradientTransform="rotate(30.557 -113.638 89.055) scale(81.8655 77.0925)"><stop stop-color="#FED980"/><stop offset=".372" stop-color="#FCAE49"/><stop offset=".556" stop-color="#F06745"/><stop offset="1" stop-color="#E83D5C" stop-opacity=".01"/></radialGradient><linearGradient id="App logo 46__a" x1="19.54" y1="-17.779" x2="15.832" y2="92.386" gradientUnits="userSpaceOnUse"><stop stop-color="#4E60D3"/><stop offset=".149" stop-color="#913BAF"/><stop offset=".316" stop-color="#D52D88"/><stop offset=".494" stop-color="#D72E85"/><stop offset=".817" stop-color="#E6366D"/><stop offset="1" stop-color="#F26D4F"/></linearGradient></defs></svg>