<svg width="86" height="86" fill="none" xmlns="http://www.w3.org/2000/svg"><path d="M0 37.352c0-9.224 0-13.836 1.795-17.359a16.47 16.47 0 0 1 7.198-7.197C12.516 11 17.128 11 26.352 11h21.411c9.224 0 13.836 0 17.36 1.795a16.47 16.47 0 0 1 7.197 7.197c1.795 3.523 1.795 8.135 1.795 17.36v21.41c0 9.225 0 13.837-1.795 17.36a16.47 16.47 0 0 1-7.198 7.197c-3.523 1.796-8.135 1.796-17.359 1.796H26.352c-9.224 0-13.836 0-17.36-1.796a16.47 16.47 0 0 1-7.197-7.197C0 72.6 0 67.988 0 58.763v-21.41Z" fill="url(#iOS App Icons__a)"/><path d="M64.127 46.465c0 12.392-12.12 22.437-27.07 22.437a32.46 32.46 0 0 1-6.565-.664c-.635-.131-1.297-.149-1.87.154-1.878.993-4.968 3.507-8.992 3.685-.181.008-.283-.2-.171-.344 2.378-3.052 3.927-5.872 2.906-6.42-7.448-3.997-12.377-10.946-12.377-18.848 0-12.391 12.12-22.437 27.07-22.437 14.95 0 27.069 10.046 27.069 22.437Z" fill="#fff"/><rect x="59.4" y=".942" width="26.4" height="26.4" rx="13.2" fill="#FF3B30"/><path d="M72.437 8.468c2.247 0 4.319 1.561 4.319 5.514v.016c0 3.664-1.638 5.827-4.388 5.827-1.957 0-3.427-1.12-3.778-2.758l-.023-.09h1.707l.03.075c.312.823 1.028 1.34 2.08 1.34 1.889 0 2.658-1.82 2.727-3.998.007-.1.007-.198.007-.297h-.038c-.434.99-1.546 1.767-3.04 1.767-2.102 0-3.625-1.531-3.625-3.61v-.016c0-2.194 1.699-3.77 4.022-3.77Zm-.008 6.01c1.34 0 2.354-.937 2.354-2.24v-.007a2.306 2.306 0 0 0-2.33-2.331c-1.296 0-2.34 1.013-2.34 2.293v.015c0 1.325.983 2.27 2.316 2.27Z" fill="#fff"/><defs><linearGradient id="iOS App Icons__a" x1="37.057" y1="11.001" x2="37.057" y2="85.115" gradientUnits="userSpaceOnUse"><stop stop-color="#5AF575"/><stop offset="1" stop-color="#08BD2B"/></linearGradient></defs></svg>