<svg width="64" height="65" fill="none" xmlns="http://www.w3.org/2000/svg"><path d="M42.667 45.86v-2.667h-8v-8h8v5.333H48v5.334h-2.667v5.333H40v5.333h-5.333v-8H40V45.86h2.667ZM56 56.526H45.333v-5.333h5.334V45.86H56v10.666Zm-48-48h21.333V29.86H8V8.526Zm5.333 5.334v10.666H24V13.86H13.333Zm21.334-5.334H56V29.86H34.667V8.526ZM40 13.86v10.666h10.667V13.86H40ZM8 35.193h21.333v21.333H8V35.193Zm5.333 5.333v10.667H24V40.526H13.333ZM48 35.193h8v5.333h-8v-5.333ZM16 16.526h5.333v5.334H16v-5.334Zm0 26.667h5.333v5.333H16v-5.333Zm26.667-26.667H48v5.334h-5.333v-5.334Z" fill="url(#qr-code-line__a)"/><defs><linearGradient id="qr-code-line__a" x1="32" y1="8.526" x2="32" y2="56.526" gradientUnits="userSpaceOnUse"><stop stop-color="#5EC2F8"/><stop offset="1" stop-color="#3A7BF1"/></linearGradient></defs></svg>