<svg width="64" height="64" fill="none" xmlns="http://www.w3.org/2000/svg"><path d="M42.667 45.333v-2.666h-8v-8h8V40H48v5.333h-2.667v5.334H40V56h-5.333v-8H40v-2.667h2.667ZM56 56H45.333v-5.333h5.334v-5.334H56V56ZM8 8h21.333v21.333H8V8Zm5.333 5.333V24H24V13.333H13.333ZM34.667 8H56v21.333H34.667V8ZM40 13.333V24h10.667V13.333H40ZM8 34.667h21.333V56H8V34.667ZM13.333 40v10.667H24V40H13.333ZM48 34.667h8V40h-8v-5.333ZM16 16h5.333v5.333H16V16Zm0 26.667h5.333V48H16v-5.333ZM42.667 16H48v5.333h-5.333V16Z" fill="url(#qr-code-line__a)"/><defs><linearGradient id="qr-code-line__a" x1="32" y1="8" x2="32" y2="56" gradientUnits="userSpaceOnUse"><stop stop-color="#5EC2F8"/><stop offset="1" stop-color="#3A7BF1"/></linearGradient></defs></svg>