<svg width="111" height="92" fill="none" xmlns="http://www.w3.org/2000/svg"><path fill-rule="evenodd" clip-rule="evenodd" d="m17.828 18.517 51.277-13.74A18.508 18.508 0 0 1 91.71 17.828l13.74 51.277a18.51 18.51 0 0 1-13.051 22.606L41.122 105.45A18.505 18.505 0 0 1 18.517 92.4L4.777 41.121a18.508 18.508 0 0 1 13.051-22.605Z" fill="#FFFC00"/><path d="M67.045 42.818c.32 1.232.55 2.485.686 3.75l.318-.228a6.437 6.437 0 0 1 2.869-1.406c.381-.075.773-.08 1.156-.014.6.088 1.16.35 1.612.751a2.93 2.93 0 0 1 .934 1.645c.073.372.078.754.013 1.127a3.354 3.354 0 0 1-.833 1.588 7.19 7.19 0 0 1-1.225 1.086l-.071.02c-.436.298-.9.574-1.3.81-.399.236-.654.388-.843.53l-.057.015c-.409.314-.471.588-.379.821.35.646.823 1.217 1.391 1.683a15.47 15.47 0 0 0 4.737 3.272c1.76.693 3.651.987 5.538.86a1.53 1.53 0 0 1 1.5.985c.618 1.685-.169 3.078-1.748 4.26a20.862 20.862 0 0 1-3.539 2.017c.071 3.772-.169 3.784-2.916 3.974-.305.02-.678.045-1.131.106-3.32.457-4.813 2.245-6.338 4.079l-.075.088a11.28 11.28 0 0 1-5.687 3.905 12.685 12.685 0 0 1-6.68-.166l-.041-.042c-.612-.162-1.242-.388-1.844-.598a13.738 13.738 0 0 0-1.951-.577l-.071.02a5.861 5.861 0 0 0-1.153-.003l-.394.03a8.21 8.21 0 0 0-3.143.978 9.698 9.698 0 0 1-1.224.526c-1.728.569-2.896.283-3.983-2.36-.61.042-1.202.071-1.764.07a11.212 11.212 0 0 1-2.632-.288c-2.694-.658-3.511-1.53-3.186-2.862.223-.924.995-1.38 2.028-1.999l.123-.078a12.45 12.45 0 0 0 3.764-3.693 11.39 11.39 0 0 0 1.903-4.673c.037-.313.067-.624.082-.94a4.434 4.434 0 0 0-.032-.711.206.206 0 0 1-.017-.064c-.07-.489-1.042-.577-1.974-.661l-.095-.013-.077.021a10.51 10.51 0 0 1-3-.75c-1.644-.705-2.702-1.908-1.582-3.982.189-.335.434-.634.726-.885a4.08 4.08 0 0 1 .91-.593c.17-.083.356-.133.545-.146l1.385-.067 1.663-.074a28.75 28.75 0 0 1-1.286-3.81c-1.229-4.585-.794-8.341.647-11.283a13.461 13.461 0 0 1 6.939-6.363c.833-.357 1.693-.65 2.57-.878a19.28 19.28 0 0 1 3.55-.588 12.937 12.937 0 0 1 9.55 3.014 16.963 16.963 0 0 1 5.102 8.764h.03Zm-.71 5.164c-.666-10.384-6.718-17.604-17.108-14.896-7.416 1.927-12.907 8.6-7.672 20.778.667 1.527-.152 1.557-1.411 1.583-1.052.062-2.11.103-3.15.154a2 2 0 0 0-.97.829c-1.007 1.9 2.136 2.309 3.355 2.414 1.559.159 3.257.242 3.515 1.97a7.624 7.624 0 0 1-.04 2.119c-.473 3.637-3.26 7.637-6.396 9.516-1.635.977-2.478 1.422.583 2.18 1.673.315 3.387.335 5.067.06 1.676 5.154 2.743 1.267 7.245.978a8.575 8.575 0 0 1 1.855-.012c1.223.18 2.586.823 4.035 1.194 4.419 1.181 7.895.401 10.92-3.222 1.715-2.09 3.435-4.158 7.354-4.7 2.773-.38 2.832.492 2.732-3.53 3.208-1.497 6.074-2.97 5.408-4.778-4.667.242-8.093-1.312-11.438-4.457-1.325-1.238-3.105-3.096-.907-4.8.557-.437 1.386-.826 2.276-1.436a3.603 3.603 0 0 0 1.504-1.745 1.567 1.567 0 0 0-1.927-1.759c-2.019.39-2.606 1.934-3.915 1.86a2.643 2.643 0 0 1-.987-.288l.073-.012Z" fill="#000"/><path d="M66.335 47.982c-.666-10.384-6.718-17.604-17.109-14.896-7.415 1.927-12.906 8.6-7.672 20.778.667 1.527-.151 1.557-1.41 1.583-1.053.062-2.11.103-3.151.154a2 2 0 0 0-.969.829c-1.007 1.9 2.136 2.309 3.354 2.414 1.56.16 3.257.242 3.516 1.97a7.624 7.624 0 0 1-.04 2.119c-.473 3.637-3.26 7.637-6.397 9.516-1.634.977-2.477 1.422.584 2.18 1.672.316 3.387.336 5.066.06 1.677 5.154 2.743 1.267 7.246.978a8.581 8.581 0 0 1 1.855-.012c1.223.18 2.586.823 4.035 1.194 4.419 1.181 7.895.401 10.92-3.222 1.715-2.09 3.435-4.158 7.354-4.7 2.773-.38 2.832.492 2.732-3.53 3.208-1.497 6.074-2.97 5.408-4.778-4.667.242-8.094-1.312-11.439-4.457-1.325-1.238-3.104-3.096-.907-4.8.558-.437 1.386-.826 2.277-1.436a3.603 3.603 0 0 0 1.504-1.745 1.567 1.567 0 0 0-1.927-1.759c-2.019.39-2.606 1.934-3.915 1.86a2.645 2.645 0 0 1-.987-.288l.072-.012Z" fill="#fff"/></svg>