<svg width="64" height="64" fill="none" xmlns="http://www.w3.org/2000/svg"><path d="m46.981 15.915 3.875-3.875 3.77 3.77-3.874 3.875A24 24 0 1 1 32 10.667a23.897 23.897 0 0 1 14.981 5.248ZM32 53.332a18.668 18.668 0 0 0 13.2-31.866A18.663 18.663 0 0 0 32 16a18.667 18.667 0 0 0 0 37.333Zm-2.667-32h5.334v16h-5.334v-16Zm-8-18.666h21.334V8H21.333V2.667Z" fill="url(#timer-line__a)"/><defs><linearGradient id="timer-line__a" x1="32.002" y1="2.667" x2="32.002" y2="58.666" gradientUnits="userSpaceOnUse"><stop stop-color="#E66005"/><stop offset="1" stop-color="#F49000"/></linearGradient></defs></svg>