<svg width="64" height="65" fill="none" xmlns="http://www.w3.org/2000/svg"><path d="M32 37.86v5.333a16 16 0 0 0-16 16h-5.333A21.333 21.333 0 0 1 32 37.86Zm0-2.667c-8.84 0-16-7.16-16-16s7.16-16 16-16 16 7.16 16 16-7.16 16-16 16Zm0-5.333c5.893 0 10.667-4.773 10.667-10.667C42.667 13.3 37.893 8.527 32 8.527S21.333 13.3 21.333 19.193c0 5.894 4.774 10.667 10.667 10.667Zm16 28-7.837 4.12 1.496-8.728-6.339-6.179 8.763-1.272L48 37.86l3.92 7.939 8.76 1.274-6.339 6.182 1.494 8.725L48 57.86Z" fill="url(#user-star-line__a)"/><defs><linearGradient id="user-star-line__a" x1="35.673" y1="3.193" x2="35.673" y2="61.98" gradientUnits="userSpaceOnUse"><stop stop-color="#FF8B99"/><stop offset="1" stop-color="#E94256"/></linearGradient></defs></svg>